# xmcd CD database file
# Copyright (C) 1997 Ti Kan
# 
# Track frame offsets:
#     150
#     10695
#     21950
#     33370
#     52865
#     66272
#     77440
#     91932
#     106937
#     116345
#     130945
#     143120
#     153695
#     164610
#     177145
#     186300
# 
# Disc length: 2780 seconds
# 
# Revision: 1
# Processed by: cddbd v1.4b41PL1 Copyright (c) Steve Scherf et al.
# Submitted via: DiscPlay 4.0.4
# 
DISCID=c80ada10
DTITLE=J. Hawkins - Raunchy Rodeo Club
DYEAR=1900
DGENRE=
TTITLE0=Copenhagen
TTITLE1=Mermaid Song
TTITLE2=How Can I Love You
TTITLE3=Save the Bales
TTITLE4=Dead Armadillo
TTITLE5=Raunchy Rodeo
TTITLE6=Redneck Girl
TTITLE7=Animal Fun
TTITLE8=Rodeo Song
TTITLE9=Its So Hard To Say I Love You
TTITLE10=All American Redneck
TTITLE11=If That Ain't Love, What Is
TTITLE12=Lovin' You (Is the Dumbest Fucking Thing I've Ever Done)
TTITLE13=Shit Faced Tonight
TTITLE14=Where Do Assholes Come From
TTITLE15=Shit, I Missed it Again
EXTD=
EXTT0=
EXTT1=
EXTT2=
EXTT3=
EXTT4=
EXTT5=
EXTT6=
EXTT7=
EXTT8=
EXTT9=
EXTT10=
EXTT11=
EXTT12=
EXTT13=
EXTT14=
EXTT15=
PLAYORDER=
